<?xml version="1.0" encoding="utf-8"?>
<!-- Generator: Adobe Illustrator 22.1.0, SVG Export Plug-In . SVG Version: 6.00 Build 0)  -->
<svg version="1.1" id="Layer_1" xmlns="http://www.w3.org/2000/svg" xmlns:xlink="http://www.w3.org/1999/xlink" x="0px" y="0px"
	 viewBox="0 0 55 55" style="enable-background:new 0 0 55 55;" xml:space="preserve">
<style type="text/css">
	.st0{fill:#C49A6C;}
	.st1{fill:none;stroke:#C49A6C;stroke-width:3;stroke-linecap:round;stroke-linejoin:round;stroke-miterlimit:10;}
	.st2{fill:#FFFFFF;}
	.st3{fill:none;stroke:#FFFFFF;stroke-width:3;stroke-linecap:round;stroke-linejoin:round;stroke-miterlimit:10;}
</style>
<g>
	<g>
		<path class="st2" d="M27.5,7.3c7.4,0,13.4,6,13.4,13.4v13.5c0,7.4-6,13.4-13.4,13.4c-7.4,0-13.4-6-13.4-13.4V20.7
			C14.1,13.4,20.1,7.3,27.5,7.3 M27.5,4.3L27.5,4.3c-9,0-16.4,7.4-16.4,16.4v13.5c0,9,7.4,16.4,16.4,16.4h0c9,0,16.4-7.4,16.4-16.4
			V20.7C43.9,11.7,36.5,4.3,27.5,4.3L27.5,4.3z"/>
	</g>
	<line class="st3" x1="27.5" y1="14.9" x2="27.5" y2="26.3"/>
</g>
</svg>
