<?xml version="1.0" encoding="utf-8"?>
<!-- Generator: Adobe Illustrator 22.1.0, SVG Export Plug-In . SVG Version: 6.00 Build 0)  -->
<svg version="1.1" id="Layer_1" xmlns="http://www.w3.org/2000/svg" xmlns:xlink="http://www.w3.org/1999/xlink" x="0px" y="0px"
	 viewBox="0 0 198 198" style="enable-background:new 0 0 198 198;" xml:space="preserve">
<style type="text/css">
	.st0{fill:#C49A6C;}
	.st1{fill:none;stroke:#C49A6C;stroke-width:3;stroke-linecap:round;stroke-linejoin:round;stroke-miterlimit:10;}
</style>
<g>
	<g>
		<path class="st0" d="M99,8c50.2,0,91,40.8,91,91s-40.8,91-91,91S8,149.2,8,99S48.8,8,99,8 M99,5C47.1,5,5,47.1,5,99s42.1,94,94,94
			s94-42.1,94-94S150.9,5,99,5L99,5z"/>
	</g>
</g>
<g>
	<g>
		<path class="st1" d="M68,133.2v-8.9c0,0-0.4-3.3,4.4-7.2s16.4-8.6,16.4-13.9s0-5.3,0-5.3s0.2-3.2-1.6-5.8s-1.5-6.5-1.5-8.3v-6.4
			c0,0-1.4-12.7,12.9-12.7"/>
		<path class="st1" d="M129.6,133.2v-8.9c0,0,0.4-3.3-4.4-7.2c-4.9-3.9-16.4-8.6-16.4-13.9s0-5.3,0-5.3s-0.2-3.2,1.6-5.8
			s1.5-6.5,1.5-8.3v-6.4c0,0,1.4-12.7-12.9-12.7"/>
	</g>
	<g>
		<path class="st1" d="M37.7,132.3v-5.8c0,0,0.2-4,3.5-6.2c3.3-2.2,12.7-6.2,12.7-12.1c0,0,0.2-2.3,0.2-3.8c0-1.4-0.7-2.1-1.7-3.3
			c-1.5-2-1.3-3-1.3-10.2c0-7.2,5.8-10.5,10.4-10.5"/>
		<path class="st1" d="M69,109.7c-0.1-0.5-0.2-0.9-0.2-1.4c0,0-0.2-2.3-0.2-3.8c0-1.4,0.7-2.1,1.7-3.3c1.5-2,1.3-3,1.3-10.2
			c0-7.2-5.8-10.5-10.4-10.5"/>
	</g>
	<g>
		<path class="st1" d="M160.3,132.3v-5.8c0,0-0.2-4-3.5-6.2c-3.3-2.2-12.7-6.2-12.7-12.1c0,0-0.2-2.3-0.2-3.8c0-1.4,0.7-2.1,1.7-3.3
			c1.5-2,1.3-3,1.3-10.2c0-7.2-5.8-10.5-10.4-10.5"/>
		<path class="st1" d="M129,109.7c0.1-0.5,0.2-0.9,0.2-1.4c0,0,0.2-2.3,0.2-3.8c0-1.4-0.7-2.1-1.7-3.3c-1.5-2-1.3-3-1.3-10.2
			c0-7.2,5.8-10.5,10.4-10.5"/>
	</g>
</g>
</svg>
