<?xml version="1.0" encoding="utf-8"?>
<!-- Generator: Adobe Illustrator 22.1.0, SVG Export Plug-In . SVG Version: 6.00 Build 0)  -->
<svg version="1.1" id="Layer_1" xmlns="http://www.w3.org/2000/svg" xmlns:xlink="http://www.w3.org/1999/xlink" x="0px" y="0px"
	 viewBox="0 0 198 198" style="enable-background:new 0 0 198 198;" xml:space="preserve">
<style type="text/css">
	.st0{fill:#C49A6C;}
	.st1{fill:none;stroke:#C49A6C;stroke-width:3;stroke-linecap:round;stroke-linejoin:round;stroke-miterlimit:10;}
</style>
<g>
	<g>
		<path class="st0" d="M99,8c50.2,0,91,40.8,91,91s-40.8,91-91,91S8,149.2,8,99S48.8,8,99,8 M99,5C47.1,5,5,47.1,5,99s42.1,94,94,94
			s94-42.1,94-94S150.9,5,99,5L99,5z"/>
	</g>
	<g>
		<path class="st1" d="M143,143.8H55c-6,0-11-4.9-11-11v-52c0-6.1,5-11,11-11h88c6.1,0,11,4.9,11,11v52
			C154,138.8,149.1,143.8,143,143.8z"/>
		<path class="st1" d="M77.5,75.2v-10c0-6,4.9-11,11-11h21c6.1,0,11,5,11,11v10"/>
		<g>
			<line class="st1" x1="112.5" y1="108.4" x2="153.9" y2="108.4"/>
			<line class="st1" x1="44.1" y1="108.4" x2="86.5" y2="108.4"/>
		</g>
		<path class="st1" d="M106.5,113.2h-15c-2.7,0-5-2.2-5-5v0c0-2.7,2.2-5,5-5h15c2.7,0,5,2.2,5,5v0
			C111.5,111,109.2,113.2,106.5,113.2z"/>
	</g>
</g>
</svg>
