<?xml version="1.0" encoding="utf-8"?>
<!-- Generator: Adobe Illustrator 22.1.0, SVG Export Plug-In . SVG Version: 6.00 Build 0)  -->
<svg version="1.1" id="Layer_1" xmlns="http://www.w3.org/2000/svg" xmlns:xlink="http://www.w3.org/1999/xlink" x="0px" y="0px"
	 viewBox="0 0 258.4 187.3" style="enable-background:new 0 0 258.4 187.3;" xml:space="preserve">
<style type="text/css">
	.st0{fill:none;stroke:#FFFFFF;stroke-miterlimit:10;}
	.st1{fill:#FFFFFF;}
</style>
<g>
	<g>
		<g>
			<g>
				<polyline class="st0" points="130.5,57.5 123.4,64.6 112.9,54.1 				"/>
				<polyline class="st0" points="147.9,54.2 137.4,64.6 130.2,57.5 				"/>
			</g>
			
				<rect x="128.1" y="52.1" transform="matrix(0.7071 -0.7071 0.7071 0.7071 -0.3079 108.1418)" class="st0" width="4.6" height="4.6"/>
		</g>
		<rect x="94.9" y="21.9" transform="matrix(0.7071 -0.7071 0.7071 0.7071 -0.7327 104.9965)" class="st0" width="63" height="63"/>
		<rect x="100.5" y="21.9" transform="matrix(0.7071 -0.7071 0.7071 0.7071 0.9271 109.0036)" class="st0" width="63" height="63"/>
	</g>
	<g>
		<g>
			<path class="st1" d="M33.2,129.9l-5.3,15.6h-1.4l-3.1-10.8l-3.1,10.8h-1.4l-5.3-15.6h1.6l4.4,13.3l3.2-11H24l3.2,11.1l4.4-13.4
				H33.2z"/>
			<path class="st1" d="M50.9,139.4l4.3,6.1h-1.8l-4.3-6.1h-2.6v6.1H45v-15.6h5.8c3.3,0,4.5,2.4,4.5,4.8
				C55.3,137.1,54.1,139.4,50.9,139.4z M46.5,138h3.9c2.4,0,3.4-1.5,3.4-3.4s-1-3.4-3-3.4h-4.3V138z"/>
			<path class="st1" d="M66.8,137.8c0-4.4,3.4-8,7.9-8c4.4,0,7.9,3.6,7.9,8c0,4.4-3.4,8-7.9,8C70.3,145.8,66.8,142.2,66.8,137.8z
				 M81.1,137.8c0-3.6-2.8-6.6-6.4-6.6c-3.6,0-6.4,3-6.4,6.6s2.8,6.6,6.4,6.6C78.3,144.4,81.1,141.4,81.1,137.8z M76.3,124.9h1.7
				l-2.5,3.5h-1.4L76.3,124.9z"/>
			<path class="st1" d="M105.9,141.2c0,2.2-1.7,4.3-4.4,4.3h-6.2v-15.6h5.7c2.5,0,4.1,1.4,4.1,3.9c0,1.4-0.6,2.9-2.1,3.4
				C105,137.7,105.9,139.6,105.9,141.2z M96.7,131.3v5.3h4.4c1.5,0,2.4-1.2,2.4-2.7c0-1.6-1-2.6-2.7-2.6H96.7z M104.4,141.1
				c0-1.7-1.2-3.2-3.2-3.2h-4.4v6.2h4.5C103.2,144.1,104.4,142.7,104.4,141.1z"/>
			<path class="st1" d="M118.5,129.9h1.5v14.2h6.6v1.4h-8.1V129.9z"/>
			<path class="st1" d="M147.7,144.1v1.4h-9.2v-15.6h8.9v1.4H140v5.8h6.5v1.4H140v5.6H147.7z"/>
			<path class="st1" d="M178,129.9l-5.3,15.6h-1.4l-3.1-10.8l-3.1,10.8h-1.4l-5.3-15.6h1.6l4.4,13.3l3.2-11h1.3l3.2,11.1l4.4-13.4
				H178z"/>
			<path class="st1" d="M188.7,141.3h1.5c0.2,1.5,1.6,3,3.8,3c2.5,0,3.7-1.6,3.7-3.1c0-1.7-1.5-2.5-3.1-2.9l-2.1-0.5
				c-3.2-0.8-3.7-2.7-3.7-3.9c0-2.6,2.4-4.3,5-4.3c2.7,0,4.8,1.6,4.9,4.2h-1.5c-0.1-1.7-1.5-2.8-3.4-2.8c-1.8,0-3.4,1.1-3.4,2.9
				c0,0.7,0.2,2,2.6,2.5l2.1,0.5c2.5,0.6,4.2,2,4.2,4.2c0,2.2-1.8,4.5-5.2,4.5C190.9,145.8,188.8,143.6,188.7,141.3z"/>
			<path class="st1" d="M220,145.5l-6.8-6.9v6.9h-1.5v-15.6h1.5v7.3l5.8-7.3h1.9l-6.4,8l7.5,7.6H220z"/>
			<path class="st1" d="M233.1,129.9h1.5v15.6h-1.5V129.9z"/>
		</g>
		<g>
			<path class="st1" d="M18.3,174.4l-3.7-3.7v3.7h-1V163h1v6.9l2.7-2.8h1.4l-3.1,3.2l4,4.1H18.3z"/>
			<path class="st1" d="M28.7,167.1v7.3h-1V173c-0.5,1-1.7,1.6-2.9,1.6c-2,0-3.7-1.6-3.7-3.8s1.7-3.8,3.7-3.8c1.2,0,2.4,0.6,2.9,1.6
				v-1.4H28.7z M27.7,170.8c0-1.8-1.4-2.9-2.8-2.9c-1.5,0-2.8,1.2-2.8,2.8c0,1.6,1.2,2.9,2.8,2.9C26.4,173.6,27.7,172.5,27.7,170.8z
				"/>
			<path class="st1" d="M38.8,170.2v4.2h-1v-4.2c0-1.4-0.9-2.3-2.1-2.3c-1.2,0-2.4,0.7-2.4,2.4v4h-1v-7.3h1v1.3
				c0.4-1,1.6-1.5,2.5-1.5C37.6,167,38.8,168.1,38.8,170.2z"/>
			<path class="st1" d="M41.9,170.7c0-2.3,1.8-3.8,3.8-3.8c1,0,2,0.4,2.6,1l-0.6,0.7c-0.5-0.5-1.2-0.7-2-0.7c-1.6,0-2.9,1.1-2.9,2.8
				c0,1.7,1.3,2.8,2.9,2.8c0.8,0,1.5-0.3,2-0.7l0.6,0.7c-0.7,0.6-1.6,1-2.6,1C43.6,174.5,41.9,173.1,41.9,170.7z"/>
			<path class="st1" d="M57.9,171.2h-6.3c0.2,1.6,1.3,2.4,2.7,2.4c1,0,1.9-0.5,2.4-1.2l0.9,0.4c-0.6,1.2-1.9,1.8-3.3,1.8
				c-2.1,0-3.7-1.5-3.7-3.8s1.7-3.8,3.7-3.8c2.1,0,3.6,1.5,3.6,3.8C57.9,170.9,57.9,171,57.9,171.2z M56.9,170.3
				c-0.1-1.5-1.2-2.4-2.6-2.4c-1.4,0-2.5,0.8-2.7,2.4H56.9z"/>
			<path class="st1" d="M61,163h1v11.4h-1V163z"/>
			<path class="st1" d="M72.8,167.1v7.3h-1V173c-0.5,1-1.7,1.6-2.9,1.6c-2,0-3.7-1.6-3.7-3.8s1.7-3.8,3.7-3.8c1.2,0,2.4,0.6,2.9,1.6
				v-1.4H72.8z M71.8,170.8c0-1.8-1.4-2.9-2.8-2.9c-1.5,0-2.8,1.2-2.8,2.8c0,1.6,1.2,2.9,2.8,2.9C70.5,173.6,71.8,172.5,71.8,170.8z
				"/>
			<path class="st1" d="M80.9,167.2l-0.2,1c-0.4-0.2-0.7-0.2-1-0.2c-1.7,0-2.3,1.9-2.3,3.7v2.7h-1v-7.3h1v1.8
				c0.4-1.2,1.1-1.9,2.3-1.9C80.1,167,80.6,167,80.9,167.2z"/>
			<path class="st1" d="M83.2,164.4c0-0.4,0.4-0.7,0.8-0.7c0.4,0,0.8,0.3,0.8,0.7c0,0.4-0.3,0.7-0.8,0.7
				C83.5,165.1,83.2,164.8,83.2,164.4z M83.4,167.1h1v7.3h-1V167.1z"/>
			<path class="st1" d="M95.2,167.1v7.3h-1V173c-0.5,1-1.7,1.6-2.9,1.6c-2,0-3.7-1.6-3.7-3.8s1.7-3.8,3.7-3.8c1.2,0,2.4,0.6,2.9,1.6
				v-1.4H95.2z M94.2,170.8c0-1.8-1.4-2.9-2.8-2.9c-1.5,0-2.8,1.2-2.8,2.8c0,1.6,1.2,2.9,2.8,2.9C92.9,173.6,94.2,172.5,94.2,170.8z
				"/>
			<path class="st1" d="M108.5,167.2l-0.2,1c-0.4-0.2-0.7-0.2-1-0.2c-1.7,0-2.3,1.9-2.3,3.7v2.7h-1v-7.3h1v1.8
				c0.4-1.2,1.1-1.9,2.3-1.9C107.8,167,108.2,167,108.5,167.2z"/>
			<path class="st1" d="M117.8,167.1v7.3h-1V173c-0.5,1-1.7,1.6-2.9,1.6c-2,0-3.7-1.6-3.7-3.8s1.7-3.8,3.7-3.8
				c1.2,0,2.4,0.6,2.9,1.6v-1.4H117.8z M116.8,170.8c0-1.8-1.4-2.9-2.8-2.9c-1.5,0-2.8,1.2-2.8,2.8c0,1.6,1.2,2.9,2.8,2.9
				C115.5,173.6,116.8,172.5,116.8,170.8z"/>
			<path class="st1" d="M128.6,163v11.4h-1V173c-0.5,1-1.7,1.6-2.9,1.6c-2,0-3.7-1.6-3.7-3.8s1.7-3.8,3.7-3.8c1.2,0,2.4,0.6,2.9,1.6
				V163H128.6z M127.6,170.8c0-1.8-1.4-2.9-2.8-2.9c-1.5,0-2.8,1.2-2.8,2.8c0,1.6,1.2,2.9,2.8,2.9
				C126.3,173.6,127.6,172.5,127.6,170.8z"/>
			<path class="st1" d="M131.7,170.7c0-2.3,1.8-3.8,3.8-3.8c1,0,2,0.4,2.6,1l-0.6,0.7c-0.5-0.5-1.2-0.7-2-0.7
				c-1.6,0-2.9,1.1-2.9,2.8c0,1.7,1.3,2.8,2.9,2.8c0.8,0,1.5-0.3,2-0.7l0.6,0.7c-0.7,0.6-1.6,1-2.6,1
				C133.5,174.5,131.7,173.1,131.7,170.7z"/>
			<path class="st1" d="M147.4,167.1l-4.6,10.8h-1.1l1.5-3.6l-3-7.2h1.1l2.5,6l2.5-6H147.4z"/>
			<path class="st1" d="M162.9,170.8c0,2.2-1.7,3.8-3.7,3.8c-1.2,0-2.4-0.6-2.9-1.6v5h-1v-10.8h1v1.4c0.5-1,1.7-1.6,2.9-1.6
				C161.3,167,162.9,168.6,162.9,170.8z M161.9,170.8c0-1.6-1.2-2.9-2.8-2.9c-1.5,0-2.8,1.1-2.8,2.8c0,1.8,1.4,2.9,2.8,2.9
				C160.7,173.6,161.9,172.4,161.9,170.8z"/>
			<path class="st1" d="M170.5,167.2l-0.2,1c-0.4-0.2-0.7-0.2-1-0.2c-1.7,0-2.3,1.9-2.3,3.7v2.7h-1v-7.3h1v1.8
				c0.4-1.2,1.1-1.9,2.3-1.9C169.8,167,170.3,167,170.5,167.2z"/>
			<path class="st1" d="M179.8,167.1v7.3h-1V173c-0.5,1-1.7,1.6-2.9,1.6c-2,0-3.7-1.6-3.7-3.8s1.7-3.8,3.7-3.8
				c1.2,0,2.4,0.6,2.9,1.6v-1.4H179.8z M178.8,170.8c0-1.8-1.4-2.9-2.8-2.9c-1.5,0-2.8,1.2-2.8,2.8c0,1.6,1.2,2.9,2.8,2.9
				C177.5,173.6,178.8,172.5,178.8,170.8z"/>
			<path class="st1" d="M194.2,167.1l-2.7,7.3h-0.9l-2.3-6l-2.2,6h-0.9l-2.8-7.3h1.1l2.1,5.8l2.1-5.8h1l2.1,5.8l2.1-5.8H194.2z"/>
			<path class="st1" d="M203.4,170.2v4.2h-1v-4.2c0-1.4-0.9-2.3-2.1-2.3c-1.2,0-2.4,0.7-2.4,2.4v4h-1v-7.3h1v1.3
				c0.4-1,1.6-1.5,2.5-1.5C202.2,167,203.4,168.1,203.4,170.2z"/>
			<path class="st1" d="M213.7,171.2h-6.3c0.2,1.6,1.3,2.4,2.7,2.4c1,0,1.9-0.5,2.4-1.2l0.9,0.4c-0.6,1.2-1.9,1.8-3.3,1.8
				c-2.1,0-3.7-1.5-3.7-3.8s1.7-3.8,3.7-3.8c2.1,0,3.6,1.5,3.6,3.8C213.8,170.9,213.8,171,213.7,171.2z M212.8,170.3
				c-0.1-1.5-1.2-2.4-2.6-2.4c-1.4,0-2.5,0.8-2.7,2.4H212.8z"/>
			<path class="st1" d="M224,167.1v6.2c0,3.5-1.6,4.7-3.9,4.7c-1.2,0-2.4-0.6-3.1-1.8l0.8-0.5c0.5,0.9,1.4,1.3,2.3,1.3
				c1.8,0,2.9-0.9,2.9-3.7V173c-0.5,1-1.7,1.6-2.9,1.6c-2,0-3.7-1.6-3.7-3.8s1.7-3.8,3.7-3.8c1.2,0,2.4,0.6,2.9,1.6v-1.4H224z
				 M223,170.8c0-1.8-1.4-2.9-2.8-2.9c-1.5,0-2.8,1.2-2.8,2.8c0,1.6,1.2,2.9,2.8,2.9C221.7,173.6,223,172.5,223,170.8z"/>
			<path class="st1" d="M227.1,170.7c0-2.3,1.7-3.8,3.8-3.8c2.1,0,3.8,1.5,3.8,3.8s-1.7,3.8-3.8,3.8
				C228.9,174.6,227.1,173,227.1,170.7z M233.8,170.7c0-1.7-1.3-2.8-2.8-2.8c-1.5,0-2.8,1.1-2.8,2.8c0,1.7,1.3,2.9,2.8,2.9
				C232.5,173.6,233.8,172.5,233.8,170.7z"/>
		</g>
	</g>
</g>
</svg>
