<?xml version="1.0" encoding="utf-8"?>
<!-- Generator: Adobe Illustrator 22.1.0, SVG Export Plug-In . SVG Version: 6.00 Build 0)  -->
<svg version="1.1" id="Layer_1" xmlns="http://www.w3.org/2000/svg" xmlns:xlink="http://www.w3.org/1999/xlink" x="0px" y="0px"
	 viewBox="0 0 358.4 101.3" style="enable-background:new 0 0 358.4 101.3;" xml:space="preserve">
<style type="text/css">
	.st0{fill:none;stroke:#FFFFFF;stroke-miterlimit:10;}
	.st1{fill:#FFFFFF;}
</style>
<g>
	<g>
		<g>
			<g>
				<polyline class="st0" points="56.4,54.7 49.3,61.9 38.8,51.4 				"/>
				<polyline class="st0" points="73.8,51.4 63.3,61.9 56.1,54.7 				"/>
			</g>
			
				<rect x="54" y="49.4" transform="matrix(0.7071 -0.7071 0.7071 0.7071 -20.0716 54.9586)" class="st0" width="4.6" height="4.6"/>
		</g>
		<rect x="20.8" y="19.1" transform="matrix(0.7071 -0.7071 0.7071 0.7071 -20.4964 51.8133)" class="st0" width="63" height="63"/>
		<rect x="26.5" y="19.1" transform="matrix(0.7071 -0.7071 0.7071 0.7071 -18.8366 55.8205)" class="st0" width="63" height="63"/>
	</g>
	<g>
		<g>
			<path class="st1" d="M149.1,29.1l-5.3,15.6h-1.4l-3.1-10.8l-3.1,10.8h-1.4l-5.3-15.6h1.6l4.4,13.3l3.2-11h1.3l3.2,11.1l4.4-13.4
				H149.1z"/>
			<path class="st1" d="M166.8,38.6l4.3,6.1h-1.8l-4.3-6.1h-2.6v6.1h-1.5V29.1h5.8c3.3,0,4.5,2.4,4.5,4.8
				C171.2,36.3,170,38.5,166.8,38.6z M162.4,37.2h3.9c2.4,0,3.4-1.5,3.4-3.4s-1-3.4-3-3.4h-4.3V37.2z"/>
			<path class="st1" d="M182.8,37c0-4.4,3.4-8,7.9-8c4.4,0,7.9,3.6,7.9,8c0,4.4-3.4,8-7.9,8C186.2,45,182.8,41.4,182.8,37z M197,37
				c0-3.6-2.8-6.6-6.4-6.6c-3.6,0-6.4,3-6.4,6.6s2.8,6.6,6.4,6.6C194.3,43.6,197,40.6,197,37z M192.2,24.1h1.7l-2.5,3.5H190
				L192.2,24.1z"/>
			<path class="st1" d="M221.8,40.4c0,2.2-1.7,4.3-4.4,4.3h-6.2V29.1h5.7c2.5,0,4.1,1.4,4.1,3.9c0,1.4-0.6,2.9-2.1,3.4
				C220.9,36.9,221.8,38.8,221.8,40.4z M212.6,30.5v5.3h4.4c1.5,0,2.4-1.2,2.4-2.7c0-1.6-1-2.6-2.7-2.6H212.6z M220.3,40.3
				c0-1.7-1.2-3.2-3.2-3.2h-4.4v6.2h4.5C219.1,43.3,220.3,41.9,220.3,40.3z"/>
			<path class="st1" d="M234.4,29.1h1.5v14.2h6.6v1.4h-8.1V29.1z"/>
			<path class="st1" d="M263.6,43.3v1.4h-9.2V29.1h8.9v1.4h-7.4v5.8h6.5v1.4h-6.5v5.6H263.6z"/>
			<path class="st1" d="M293.9,29.1l-5.3,15.6h-1.4l-3.1-10.8L281,44.7h-1.4l-5.3-15.6h1.6l4.4,13.3l3.2-11h1.3l3.2,11.1l4.4-13.4
				H293.9z"/>
			<path class="st1" d="M304.6,40.5h1.5c0.2,1.5,1.6,3,3.8,3c2.5,0,3.7-1.6,3.7-3.1c0-1.7-1.5-2.5-3.1-2.9l-2.1-0.5
				c-3.2-0.8-3.7-2.7-3.7-3.9c0-2.6,2.4-4.3,5-4.3c2.7,0,4.8,1.6,4.9,4.2h-1.5c-0.1-1.7-1.5-2.8-3.4-2.8c-1.8,0-3.4,1.1-3.4,2.9
				c0,0.7,0.2,2,2.6,2.5l2.1,0.5c2.5,0.6,4.2,2,4.2,4.2c0,2.2-1.8,4.5-5.2,4.5C306.8,45,304.7,42.8,304.6,40.5z"/>
			<path class="st1" d="M335.9,44.7l-6.8-6.9v6.9h-1.5V29.1h1.5v7.3l5.8-7.3h1.9l-6.4,8l7.5,7.6H335.9z"/>
			<path class="st1" d="M349.1,29.1h1.5v15.6h-1.5V29.1z"/>
		</g>
		<g>
			<path class="st1" d="M134.3,73.6l-3.7-3.7v3.7h-1V62.2h1v6.9l2.7-2.8h1.4l-3.1,3.2l4,4.1H134.3z"/>
			<path class="st1" d="M144.6,66.3v7.3h-1v-1.4c-0.5,1-1.7,1.6-2.9,1.6c-2,0-3.7-1.6-3.7-3.8s1.7-3.8,3.7-3.8
				c1.2,0,2.4,0.6,2.9,1.6v-1.4H144.6z M143.6,70c0-1.8-1.4-2.9-2.8-2.9c-1.5,0-2.8,1.2-2.8,2.8c0,1.6,1.2,2.9,2.8,2.9
				C142.3,72.8,143.6,71.7,143.6,70z"/>
			<path class="st1" d="M154.7,69.3v4.2h-1v-4.2c0-1.4-0.9-2.3-2.1-2.3c-1.2,0-2.4,0.7-2.4,2.4v4h-1v-7.3h1v1.3
				c0.4-1,1.6-1.5,2.5-1.5C153.5,66.2,154.7,67.3,154.7,69.3z"/>
			<path class="st1" d="M157.8,69.9c0-2.3,1.8-3.8,3.8-3.8c1,0,2,0.4,2.6,1l-0.6,0.7c-0.5-0.5-1.2-0.7-2-0.7c-1.6,0-2.9,1.1-2.9,2.8
				c0,1.7,1.3,2.8,2.9,2.8c0.8,0,1.5-0.3,2-0.7l0.6,0.7c-0.7,0.6-1.6,1-2.6,1C159.6,73.7,157.8,72.2,157.8,69.9z"/>
			<path class="st1" d="M173.8,70.4h-6.3c0.2,1.6,1.3,2.4,2.7,2.4c1,0,1.9-0.5,2.4-1.2l0.9,0.4c-0.6,1.2-1.9,1.8-3.3,1.8
				c-2.1,0-3.7-1.5-3.7-3.8s1.7-3.8,3.7-3.8c2.1,0,3.6,1.5,3.6,3.8C173.8,70.1,173.8,70.2,173.8,70.4z M172.8,69.5
				c-0.1-1.5-1.2-2.4-2.6-2.4c-1.4,0-2.5,0.8-2.7,2.4H172.8z"/>
			<path class="st1" d="M176.9,62.2h1v11.4h-1V62.2z"/>
			<path class="st1" d="M188.7,66.3v7.3h-1v-1.4c-0.5,1-1.7,1.6-2.9,1.6c-2,0-3.7-1.6-3.7-3.8s1.7-3.8,3.7-3.8
				c1.2,0,2.4,0.6,2.9,1.6v-1.4H188.7z M187.7,70c0-1.8-1.4-2.9-2.8-2.9c-1.5,0-2.8,1.2-2.8,2.8c0,1.6,1.2,2.9,2.8,2.9
				C186.4,72.8,187.7,71.7,187.7,70z"/>
			<path class="st1" d="M196.8,66.4l-0.2,1c-0.4-0.2-0.7-0.2-1-0.2c-1.7,0-2.3,1.9-2.3,3.7v2.7h-1v-7.3h1v1.8
				c0.4-1.2,1.1-1.9,2.3-1.9C196,66.2,196.5,66.2,196.8,66.4z"/>
			<path class="st1" d="M199.1,63.6c0-0.4,0.4-0.7,0.8-0.7c0.4,0,0.8,0.3,0.8,0.7c0,0.4-0.3,0.7-0.8,0.7
				C199.4,64.3,199.1,64,199.1,63.6z M199.3,66.3h1v7.3h-1V66.3z"/>
			<path class="st1" d="M211.1,66.3v7.3h-1v-1.4c-0.5,1-1.7,1.6-2.9,1.6c-2,0-3.7-1.6-3.7-3.8s1.7-3.8,3.7-3.8
				c1.2,0,2.4,0.6,2.9,1.6v-1.4H211.1z M210.1,70c0-1.8-1.4-2.9-2.8-2.9c-1.5,0-2.8,1.2-2.8,2.8c0,1.6,1.2,2.9,2.8,2.9
				C208.8,72.8,210.1,71.7,210.1,70z"/>
			<path class="st1" d="M224.4,66.4l-0.2,1c-0.4-0.2-0.7-0.2-1-0.2c-1.7,0-2.3,1.9-2.3,3.7v2.7h-1v-7.3h1v1.8
				c0.4-1.2,1.1-1.9,2.3-1.9C223.7,66.2,224.2,66.2,224.4,66.4z"/>
			<path class="st1" d="M233.7,66.3v7.3h-1v-1.4c-0.5,1-1.7,1.6-2.9,1.6c-2,0-3.7-1.6-3.7-3.8s1.7-3.8,3.7-3.8
				c1.2,0,2.4,0.6,2.9,1.6v-1.4H233.7z M232.7,70c0-1.8-1.4-2.9-2.8-2.9c-1.5,0-2.8,1.2-2.8,2.8c0,1.6,1.2,2.9,2.8,2.9
				C231.4,72.8,232.7,71.7,232.7,70z"/>
			<path class="st1" d="M244.5,62.2v11.4h-1v-1.4c-0.5,1-1.7,1.6-2.9,1.6c-2,0-3.7-1.6-3.7-3.8s1.7-3.8,3.7-3.8
				c1.2,0,2.4,0.6,2.9,1.6v-5.5H244.5z M243.5,70c0-1.8-1.4-2.9-2.8-2.9c-1.5,0-2.8,1.2-2.8,2.8c0,1.6,1.2,2.9,2.8,2.9
				C242.2,72.8,243.5,71.7,243.5,70z"/>
			<path class="st1" d="M247.6,69.9c0-2.3,1.8-3.8,3.8-3.8c1,0,2,0.4,2.6,1l-0.6,0.7c-0.5-0.5-1.2-0.7-2-0.7c-1.6,0-2.9,1.1-2.9,2.8
				c0,1.7,1.3,2.8,2.9,2.8c0.8,0,1.5-0.3,2-0.7l0.6,0.7c-0.7,0.6-1.6,1-2.6,1C249.4,73.7,247.6,72.2,247.6,69.9z"/>
			<path class="st1" d="M263.3,66.3l-4.6,10.8h-1.1l1.5-3.6l-3-7.2h1.1l2.5,6l2.5-6H263.3z"/>
			<path class="st1" d="M278.8,70c0,2.2-1.7,3.8-3.7,3.8c-1.2,0-2.4-0.6-2.9-1.6v5h-1V66.3h1v1.4c0.5-1,1.7-1.6,2.9-1.6
				C277.2,66.2,278.8,67.7,278.8,70z M277.9,70c0-1.6-1.2-2.9-2.8-2.9c-1.5,0-2.8,1.1-2.8,2.8c0,1.8,1.4,2.9,2.8,2.9
				C276.6,72.8,277.9,71.6,277.9,70z"/>
			<path class="st1" d="M286.5,66.4l-0.2,1c-0.4-0.2-0.7-0.2-1-0.2c-1.7,0-2.3,1.9-2.3,3.7v2.7h-1v-7.3h1v1.8
				c0.4-1.2,1.1-1.9,2.3-1.9C285.7,66.2,286.2,66.2,286.5,66.4z"/>
			<path class="st1" d="M295.7,66.3v7.3h-1v-1.4c-0.5,1-1.7,1.6-2.9,1.6c-2,0-3.7-1.6-3.7-3.8s1.7-3.8,3.7-3.8
				c1.2,0,2.4,0.6,2.9,1.6v-1.4H295.7z M294.7,70c0-1.8-1.4-2.9-2.8-2.9c-1.5,0-2.8,1.2-2.8,2.8c0,1.6,1.2,2.9,2.8,2.9
				C293.4,72.8,294.7,71.7,294.7,70z"/>
			<path class="st1" d="M310.1,66.3l-2.7,7.3h-0.9l-2.3-6l-2.2,6h-0.9l-2.8-7.3h1.1l2.1,5.8l2.1-5.8h1l2.1,5.8l2.1-5.8H310.1z"/>
			<path class="st1" d="M319.3,69.3v4.2h-1v-4.2c0-1.4-0.9-2.3-2.1-2.3c-1.2,0-2.4,0.7-2.4,2.4v4h-1v-7.3h1v1.3
				c0.4-1,1.6-1.5,2.5-1.5C318.1,66.2,319.3,67.3,319.3,69.3z"/>
			<path class="st1" d="M329.7,70.4h-6.3c0.2,1.6,1.3,2.4,2.7,2.4c1,0,1.9-0.5,2.4-1.2l0.9,0.4c-0.6,1.2-1.9,1.8-3.3,1.8
				c-2.1,0-3.7-1.5-3.7-3.8s1.7-3.8,3.7-3.8c2.1,0,3.6,1.5,3.6,3.8C329.7,70.1,329.7,70.2,329.7,70.4z M328.7,69.5
				c-0.1-1.5-1.2-2.4-2.6-2.4c-1.4,0-2.5,0.8-2.7,2.4H328.7z"/>
			<path class="st1" d="M339.9,66.3v6.2c0,3.5-1.6,4.7-3.9,4.7c-1.2,0-2.4-0.6-3.1-1.8l0.8-0.5c0.5,0.9,1.4,1.3,2.3,1.3
				c1.8,0,2.9-0.9,2.9-3.7v-0.4c-0.5,1-1.7,1.6-2.9,1.6c-2,0-3.7-1.6-3.7-3.8s1.7-3.8,3.7-3.8c1.2,0,2.4,0.6,2.9,1.6v-1.4H339.9z
				 M338.9,70c0-1.8-1.4-2.9-2.8-2.9c-1.5,0-2.8,1.2-2.8,2.8c0,1.6,1.2,2.9,2.8,2.9C337.6,72.8,338.9,71.7,338.9,70z"/>
			<path class="st1" d="M343.1,69.9c0-2.3,1.7-3.8,3.8-3.8c2.1,0,3.8,1.5,3.8,3.8s-1.7,3.8-3.8,3.8
				C344.8,73.7,343.1,72.2,343.1,69.9z M349.7,69.9c0-1.7-1.3-2.8-2.8-2.8c-1.5,0-2.8,1.1-2.8,2.8c0,1.7,1.3,2.9,2.8,2.9
				C348.4,72.8,349.7,71.7,349.7,69.9z"/>
		</g>
	</g>
</g>
</svg>
